<?xml version="1.0" standalone="no"?>
<!DOCTYPE svg PUBLIC "-//W3C//DTD SVG 20010904//EN"
 "http://www.w3.org/TR/2001/REC-SVG-20010904/DTD/svg10.dtd">
<svg version="1.0" xmlns="http://www.w3.org/2000/svg"
 width="640.000000pt" height="640.000000pt" viewBox="0 0 640.000000 640.000000"
 preserveAspectRatio="xMidYMid meet">
<metadata>
Created by potrace 1.14, written by Peter Selinger 2001-2017
</metadata>
<g transform="translate(0.000000,640.000000) scale(0.100000,-0.100000)"
fill="#000000" stroke="none">
<path d="M3080 5555 l-104 -105 99 -103 c55 -58 105 -105 110 -106 6 0 57 46
115 104 l104 105 -46 47 c-26 28 -44 54 -41 63 3 11 2 12 -4 3 -7 -9 -24 3
-63 42 -30 30 -57 55 -60 55 -3 0 -52 -47 -110 -105z"/>
<path d="M2850 5316 c-30 -30 -59 -52 -64 -49 -5 4 -6 2 -3 -4 3 -5 -50 -65
-119 -133 -68 -68 -124 -126 -124 -130 0 -4 62 -10 138 -12 75 -3 159 -11 185
-19 l48 -13 105 105 105 105 -102 102 c-56 56 -104 102 -108 102 -4 0 -31 -24
-61 -54z"/>
<path d="M3355 5269 l-97 -100 23 -27 c65 -73 179 -182 191 -182 7 1 40 7 73
15 35 9 110 15 178 15 64 0 117 3 117 8 0 12 -364 372 -376 372 -6 0 -55 -45
-109 -101z"/>
<path d="M3095 5004 c-44 -47 -81 -88 -83 -92 -1 -4 25 -34 59 -67 34 -33 72
-81 85 -107 13 -27 28 -48 32 -48 4 0 20 23 36 51 15 28 56 78 89 110 l60 59
-29 31 c-71 76 -150 149 -159 148 -5 0 -46 -38 -90 -85z"/>
<path d="M2300 4766 c-67 -68 -126 -130 -131 -137 -23 -37 -14 -39 183 -39
l192 0 140 140 c113 113 138 142 126 150 -8 5 -97 10 -201 10 l-186 0 -123
-124z"/>
<path d="M3568 4883 c-10 -2 -18 -7 -18 -9 0 -3 63 -68 139 -145 l139 -139
193 2 c144 2 193 6 197 16 2 7 -56 73 -129 147 l-132 135 -186 -1 c-102 -1
-194 -3 -203 -6z"/>
<path d="M2808 4717 c-59 -60 -105 -114 -102 -118 3 -5 93 -9 200 -9 157 0
196 3 200 14 7 19 -47 125 -80 155 -14 13 -23 29 -19 35 3 6 3 8 -2 4 -4 -4
-19 2 -33 12 -13 11 -32 19 -41 19 -9 -1 -64 -51 -123 -112z"/>
<path d="M3399 4803 c-74 -62 -112 -118 -125 -182 l-6 -31 199 0 c110 0 203 3
207 7 8 8 -214 233 -231 233 -6 0 -26 -12 -44 -27z"/>
<path d="M2107 4488 c-19 -12 -15 -165 6 -225 10 -29 23 -56 29 -59 11 -7 301
277 292 286 -8 8 -314 6 -327 -2z"/>
<path d="M2609 4493 c-17 -3 -86 -64 -212 -188 -103 -102 -187 -186 -187 -188
0 -6 441 -442 450 -445 6 -2 24 8 42 23 65 55 250 133 353 150 83 13 75 -21
75 331 0 244 -3 314 -12 314 -123 4 -490 5 -509 3z"/>
<path d="M3254 4485 c-3 -6 -3 -149 -2 -320 l3 -309 66 -12 c118 -22 213 -60
322 -130 37 -24 71 -44 75 -44 4 0 106 99 226 219 179 179 217 222 211 238 -5
10 -7 22 -6 28 2 5 -1 6 -5 2 -5 -4 -86 70 -181 165 l-173 173 -266 0 c-170 0
-268 -4 -270 -10z"/>
<path d="M3939 4491 c-11 -3 274 -291 290 -291 5 0 19 28 30 62 22 66 30 211
11 223 -10 6 -313 12 -331 6z"/>
<path d="M4379 4470 c-1 -3 -2 -41 -4 -85 -2 -44 -10 -101 -18 -127 -8 -27
-12 -48 -9 -48 4 0 40 7 81 15 41 9 96 15 122 14 27 -2 51 0 53 2 3 3 -46 56
-109 119 -63 63 -115 112 -116 110z"/>
<path d="M1875 4350 c-60 -60 -105 -110 -100 -111 6 0 30 0 55 1 25 1 78 -6
118 -15 41 -9 75 -15 77 -13 2 1 -3 28 -11 58 -8 30 -14 85 -14 122 0 37 -3
68 -8 68 -4 0 -57 -49 -117 -110z"/>
<path d="M1758 4133 c-10 -2 -18 -12 -18 -21 -3 -76 2 -307 6 -311 2 -3 26 16
52 42 27 26 51 45 55 42 4 -3 5 -2 2 2 -8 10 67 83 78 76 6 -3 7 -2 4 4 -3 5
18 34 48 63 30 29 52 57 49 61 -3 5 -34 18 -70 29 -61 18 -161 25 -206 13z"/>
<path d="M4443 4130 c-40 -8 -103 -36 -103 -45 0 -9 281 -285 291 -285 5 0 9
67 9 160 l0 160 -26 10 c-30 12 -111 11 -171 0z"/>
<path d="M1503 3968 c-183 -175 -164 -136 -162 -352 1 -129 5 -189 13 -195 9
-7 51 29 149 127 l136 137 2 195 c0 128 -3 196 -10 198 -6 2 -63 -48 -128
-110z"/>
<path d="M4730 3886 l0 -194 135 -136 c74 -75 142 -136 150 -136 11 0 15 11
15 43 0 23 1 111 1 196 l1 154 -119 119 c-102 103 -156 148 -178 148 -3 0 -5
-87 -5 -194z"/>
<path d="M1923 3834 c-115 -116 -183 -193 -184 -207 -1 -12 -1 -129 -1 -259
l2 -238 320 0 c248 0 321 3 324 13 2 6 11 46 20 87 19 84 98 257 141 308 l28
34 -224 224 c-123 123 -228 224 -234 223 -5 -1 -92 -84 -192 -185z"/>
<path d="M4027 3802 c-119 -119 -217 -221 -217 -226 0 -5 16 -33 36 -63 54
-82 104 -196 127 -295 l21 -88 323 0 323 0 0 258 0 257 -188 188 c-103 103
-192 187 -197 187 -6 0 -108 -98 -228 -218z"/>
<path d="M3002 3720 c-119 -31 -205 -83 -307 -185 -73 -72 -98 -106 -129 -170
-48 -99 -53 -112 -60 -151 -3 -18 -8 -43 -12 -58 l-6 -26 696 0 c601 0 696 2
696 15 0 42 -26 129 -60 200 -88 184 -247 319 -437 371 -113 31 -271 32 -381
4z"/>
<path d="M1221 3690 c-13 -16 -27 -27 -32 -24 -5 3 -8 2 -7 -3 4 -13 -64 -83
-74 -77 -4 3 -8 -1 -8 -8 0 -17 -114 -130 -123 -123 -4 3 -5 2 -2 -2 8 -11
-67 -83 -79 -76 -6 3 -8 2 -3 -2 4 -5 -2 -18 -13 -30 l-19 -21 95 -97 c53 -53
103 -97 113 -97 9 0 61 44 115 99 l98 98 -16 52 c-10 35 -16 99 -17 197 0 79
-2 144 -2 144 -1 0 -13 -14 -26 -30z"/>
<path d="M5129 3583 c0 -80 -6 -140 -18 -187 l-18 -69 99 -99 c55 -54 107 -98
117 -98 17 0 201 178 201 195 0 6 -38 48 -84 94 -47 47 -82 89 -79 94 3 6 2 7
-4 4 -11 -7 -86 66 -78 76 3 4 2 5 -2 2 -10 -8 -83 67 -76 78 3 6 1 7 -4 4 -6
-4 -16 0 -23 8 -25 30 -30 13 -31 -102z"/>
<path d="M1513 3424 c-62 -62 -113 -117 -113 -122 0 -23 93 -111 148 -140 71
-38 90 -40 94 -9 6 42 -3 387 -10 386 -4 -1 -58 -53 -119 -115z"/>
<path d="M4737 3534 c-4 -4 -7 -97 -7 -206 0 -225 -5 -215 83 -173 57 26 157
119 157 144 0 20 -223 244 -233 235z"/>
<path d="M715 3190 l-59 -60 129 0 129 0 -59 60 c-33 33 -64 60 -70 60 -6 0
-37 -27 -70 -60z"/>
<path d="M5523 3195 c-29 -30 -53 -57 -53 -60 0 -3 54 -5 120 -5 66 0 120 4
120 8 0 14 -105 112 -120 112 -8 0 -39 -25 -67 -55z"/>
<path d="M1275 3180 l-49 -50 92 0 c51 0 92 3 92 8 -1 4 -20 26 -43 50 l-42
43 -50 -51z"/>
<path d="M5001 3180 l-42 -50 98 0 97 0 -49 50 c-27 28 -52 50 -56 50 -3 0
-25 -22 -48 -50z"/>
<path d="M1005 3040 c-172 -27 -297 -132 -356 -295 -18 -49 -22 -84 -23 -190
0 -82 4 -148 13 -180 65 -239 252 -351 528 -317 54 7 114 12 134 12 l36 0 58
150 58 150 188 0 c145 0 189 -3 189 -12 0 -7 7 -26 15 -42 9 -16 13 -36 10
-43 -2 -8 -1 -12 3 -9 5 3 24 -39 44 -92 l36 -97 83 -9 c46 -5 134 -9 194 -9
110 0 114 1 229 48 16 7 17 6 7 -14 -12 -22 -11 -22 55 -19 l66 3 58 145 57
145 185 3 186 2 58 -150 59 -150 63 0 c35 0 62 4 62 10 0 6 -34 97 -76 203
-79 200 -160 408 -240 612 -25 66 -51 126 -56 133 -6 6 -30 12 -54 12 -42 0
-45 -2 -64 -42 -18 -39 -183 -456 -226 -572 l-18 -49 -9 29 c-27 83 -93 134
-258 199 -141 56 -193 96 -204 159 -10 52 9 110 44 136 61 43 197 45 310 5 24
-8 47 -15 51 -15 8 0 40 78 40 96 0 15 -91 42 -183 54 -92 13 -197 1 -257 -30
-130 -67 -174 -218 -100 -348 35 -61 87 -96 223 -152 56 -24 121 -54 144 -68
102 -63 96 -203 -12 -257 -48 -24 -199 -28 -280 -7 l-50 13 -83 212 c-45 117
-120 307 -165 422 l-83 210 -50 3 c-45 3 -52 0 -61 -20 -11 -25 -72 -177 -188
-473 -37 -93 -72 -183 -79 -200 -8 -16 -24 -59 -38 -95 l-24 -65 -54 -12
c-147 -31 -270 -1 -353 85 -86 88 -117 302 -67 452 23 68 65 134 80 125 5 -3
12 0 16 6 4 8 3 9 -4 5 -28 -17 -9 11 21 31 61 42 108 55 192 55 70 0 108 -7
202 -37 19 -6 25 0 47 44 24 47 25 51 8 60 -62 33 -248 56 -337 41z m1903
-260 c17 -47 49 -132 71 -189 22 -58 39 -106 37 -108 -2 -2 -66 -2 -143 -1
l-140 3 71 191 c39 106 72 191 73 190 1 0 15 -39 31 -86z m-1235 3 c16 -43 46
-125 68 -181 21 -57 39 -108 39 -113 0 -5 -63 -9 -140 -9 -77 0 -140 3 -140 7
0 3 24 70 54 147 30 78 60 160 67 184 7 23 15 42 18 42 4 0 19 -35 34 -77z"/>
<path d="M3599 3026 c-5 -6 -9 -199 -9 -484 l0 -473 238 3 c233 3 238 3 294
30 l57 26 -10 -24 c-5 -14 -9 -27 -9 -30 0 -2 29 -4 64 -4 63 0 64 0 75 33 6
17 32 85 58 150 l46 117 185 -2 185 -3 57 -145 57 -145 102 -3 101 -3 0 226 0
225 239 0 239 0 6 -31 c3 -17 6 -119 6 -225 l0 -194 64 0 63 0 -1 478 -1 477
-62 3 -63 3 0 -33 c-1 -18 0 -108 0 -200 l1 -168 -246 0 -245 0 0 200 0 200
-65 0 -65 0 -2 -397 -3 -398 -52 137 c-130 339 -257 654 -267 660 -15 10 -78
10 -94 0 -7 -5 -34 -64 -60 -133 -27 -68 -84 -213 -127 -321 l-79 -197 -12 36
c-25 73 -70 114 -155 144 -31 11 -44 18 -31 19 35 0 99 46 129 91 54 81 41
212 -26 277 -67 64 -116 75 -359 82 -129 3 -217 1 -223 -4z m438 -127 c33 -16
45 -29 59 -64 35 -92 -8 -185 -94 -202 -20 -4 -91 -7 -157 -7 l-120 -1 -3 140
c-1 76 0 145 3 153 8 23 256 7 312 -19z m588 -131 c19 -51 50 -137 69 -190
l36 -98 -144 0 -143 0 64 167 c35 92 67 180 70 195 3 16 8 27 10 24 3 -3 20
-47 38 -98z m-580 -271 c106 -45 125 -205 34 -279 -43 -35 -111 -48 -250 -48
l-109 0 0 176 0 176 143 -4 c103 -3 153 -9 182 -21z"/>
<path d="M1690 1788 c0 -142 5 -158 47 -158 24 0 31 18 13 36 -5 5 -11 63 -12
129 -3 116 -4 120 -25 123 -23 3 -23 3 -23 -130z"/>
<path d="M2317 1913 c-2 -5 -3 -23 -2 -41 1 -31 0 -32 -32 -26 -48 9 -91 -12
-114 -57 -23 -46 -24 -65 -4 -103 8 -15 12 -32 9 -37 -3 -5 -2 -8 3 -7 4 1 24
-3 44 -10 24 -9 44 -10 61 -3 13 5 36 7 50 4 33 -6 34 0 30 165 -3 112 -5 122
-22 122 -10 0 -21 -3 -23 -7z m-18 -117 c20 -24 16 -95 -7 -118 -26 -26 -67
-18 -76 14 -10 38 -7 93 6 106 16 16 63 15 77 -2z"/>
<path d="M1213 1902 c-12 -2 -26 -15 -31 -30 -38 -103 -82 -228 -82 -234 0 -5
11 -8 24 -8 19 0 26 8 36 45 l13 45 46 0 47 0 12 -45 c10 -38 16 -45 37 -45
14 0 25 4 25 8 0 19 -83 248 -94 258 -6 5 -21 8 -33 6z m25 -104 c8 -30 6 -33
-16 -36 -32 -5 -34 -1 -21 36 14 41 26 41 37 0z"/>
<path d="M1791 1901 c-21 -14 -5 -43 21 -39 15 2 23 10 23 23 0 22 -22 30 -44
16z"/>
<path d="M2723 1903 c-10 -4 -13 -40 -13 -139 l0 -134 64 0 c34 0 77 5 94 11
92 32 104 201 19 246 -29 15 -137 25 -164 16z m148 -60 c28 -27 28 -106 2
-141 -16 -21 -30 -28 -67 -30 l-46 -3 0 102 0 102 46 -6 c27 -3 54 -13 65 -24z"/>
<path d="M3935 1896 c-88 -38 -99 -198 -18 -251 15 -11 43 -16 72 -15 25 1 63
1 84 1 l38 -1 -3 68 -3 67 -55 0 c-42 0 -55 -3 -55 -15 0 -10 12 -16 33 -18
38 -4 40 -15 7 -47 -31 -32 -60 -32 -90 1 -25 27 -29 43 -26 98 4 80 93 119
129 56 16 -28 62 -44 62 -21 0 29 -22 60 -53 74 -42 20 -81 21 -122 3z"/>
<path d="M1931 1882 c-7 -13 -6 -23 1 -30 9 -9 8 -12 -3 -12 -9 0 -26 -12 -40
-26 -19 -21 -24 -36 -24 -80 0 -45 4 -58 27 -80 44 -44 138 -33 157 19 17 45
-18 51 -53 10 -21 -24 -27 -26 -48 -16 -14 6 -28 21 -31 32 -5 20 -1 21 69 21
l74 0 0 31 c0 35 -34 89 -56 89 -8 0 -12 5 -9 10 3 6 3 19 0 30 -8 26 -51 27
-64 2z m65 -86 c26 -26 15 -36 -37 -36 -51 0 -53 3 -26 38 13 16 45 15 63 -2z"/>
<path d="M1369 1878 c-1 -7 -1 -19 0 -25 1 -7 -5 -13 -14 -13 -8 0 -15 -7 -15
-15 0 -8 6 -15 14 -15 11 0 14 -18 14 -79 0 -44 3 -85 7 -90 8 -15 75 -14 75
0 0 7 -7 17 -14 23 -10 7 -16 33 -17 76 -2 54 0 66 14 68 21 4 23 32 2 32 -8
0 -16 5 -16 10 -1 6 -2 16 -3 23 -1 17 -46 22 -47 5z"/>
<path d="M5270 1865 c0 -16 -6 -25 -15 -25 -8 0 -15 -7 -15 -15 0 -8 7 -15 15
-15 12 0 15 -15 15 -79 0 -44 5 -83 10 -86 6 -4 8 -10 6 -13 -2 -4 13 -6 35
-4 42 4 54 26 19 35 -18 5 -20 14 -20 76 0 64 2 71 20 71 11 0 20 7 20 15 0 8
-9 15 -20 15 -15 0 -20 7 -20 25 0 20 -5 25 -25 25 -20 0 -25 -5 -25 -25z"/>
<path d="M1525 1841 c-83 -35 -84 -172 -1 -206 36 -15 95 -6 113 18 37 47 7
77 -33 33 -14 -14 -29 -26 -35 -26 -23 0 -49 22 -49 40 0 18 7 20 71 20 l70 0
-3 49 c-2 27 -5 48 -7 46 -2 -3 -15 5 -29 15 -26 21 -63 25 -97 11z m72 -43
c18 -30 11 -38 -33 -38 -45 0 -57 13 -32 38 16 16 55 15 65 0z"/>
<path d="M2444 1835 c-12 -8 -25 -11 -29 -7 -5 4 -5 2 -1 -5 3 -6 2 -14 -3
-18 -18 -10 -24 -91 -9 -122 19 -41 74 -65 120 -53 39 11 54 25 60 55 5 30
-28 30 -53 1 -13 -14 -31 -26 -40 -26 -17 0 -49 35 -49 52 0 5 34 8 76 8 l77
0 -6 42 c-10 74 -87 113 -143 73z m87 -52 c8 -22 6 -23 -42 -23 -51 0 -53 3
-26 38 16 20 59 10 68 -15z"/>
<path d="M3027 1843 c-36 -9 -58 -43 -64 -97 -5 -48 -3 -56 23 -85 46 -50 134
-48 168 4 18 27 21 107 6 136 -20 37 -79 56 -133 42z m79 -50 c21 -28 17 -90
-6 -113 -40 -40 -90 -10 -90 55 0 63 63 101 96 58z"/>
<path d="M3234 1832 c-67 -42 -70 -145 -6 -188 31 -21 54 -23 102 -9 19 6 52
59 43 69 -13 12 -34 5 -55 -19 -41 -47 -80 -24 -82 49 -1 24 5 50 13 59 19 23
56 21 72 -3 17 -25 59 -35 59 -15 0 8 -10 26 -22 40 -31 35 -83 42 -124 17z"/>
<path d="M3443 1840 c-35 -14 -57 -57 -57 -112 0 -65 35 -103 94 -103 63 0
130 64 85 81 -11 5 -25 -2 -41 -20 -28 -30 -46 -33 -68 -10 -34 33 -20 44 54
44 72 0 74 1 71 45 -6 67 -70 102 -138 75z m75 -42 c25 -25 13 -38 -33 -38
-49 0 -50 1 -35 31 12 21 50 25 68 7z"/>
<path d="M3626 1829 c-48 -38 -29 -84 47 -109 30 -9 38 -16 35 -33 -4 -29 -33
-33 -55 -8 -18 22 -48 28 -57 12 -10 -15 33 -59 63 -66 17 -4 44 0 65 9 31 13
36 19 36 49 0 38 -21 62 -62 72 -32 8 -53 30 -43 45 10 17 44 11 55 -9 11 -21
50 -18 50 4 0 21 -50 55 -80 55 -15 0 -39 -9 -54 -21z"/>
<path d="M4180 1834 c-41 -28 -50 -45 -50 -94 0 -80 53 -124 132 -110 56 11
71 30 76 98 4 51 1 62 -20 86 -31 36 -100 46 -138 20z m94 -40 c20 -20 21 -83
0 -112 -35 -50 -99 -9 -93 60 5 61 56 89 93 52z"/>
<path d="M4639 1843 c-44 -5 -48 -16 -41 -132 4 -77 6 -82 26 -79 19 3 22 11
26 83 5 72 7 81 30 92 28 14 34 37 10 39 -8 0 -31 -1 -51 -3z"/>
<path d="M4760 1842 l-35 -7 0 -100 c0 -96 1 -100 23 -103 21 -3 22 0 23 60 1
89 10 113 39 113 24 0 25 -3 30 -85 5 -81 6 -85 29 -85 22 0 23 3 25 78 3 81
11 101 42 95 16 -3 20 -16 24 -88 5 -79 7 -85 28 -88 21 -3 22 -1 22 87 0 79
-3 94 -21 112 -17 17 -28 20 -57 15 -44 -8 -56 -8 -102 -2 -19 2 -51 1 -70 -2z"/>
<path d="M5091 1836 c-34 -19 -50 -54 -51 -108 0 -74 52 -115 124 -98 40 9 65
33 66 63 0 26 -35 21 -54 -8 -19 -30 -46 -32 -69 -7 -31 34 -21 42 52 42 39 0
73 4 76 10 3 5 1 28 -5 50 -16 61 -82 88 -139 56z m77 -38 c25 -25 13 -38 -33
-38 -49 0 -50 1 -35 31 12 21 50 25 68 7z"/>
<path d="M1783 1738 c2 -99 3 -103 25 -103 12 0 22 3 22 8 0 4 0 50 0 102 0
94 0 95 -25 95 l-24 0 2 -102z"/>
<path d="M4370 1752 c0 -75 3 -92 20 -107 19 -18 77 -28 95 -16 6 3 24 6 40 6
l30 0 3 103 3 102 -25 0 c-24 0 -26 -3 -26 -47 0 -68 -17 -121 -41 -128 -37
-12 -49 11 -49 96 0 78 0 79 -25 79 -25 0 -25 -1 -25 -88z"/>
</g>
</svg>
